<?xml version="1.0" standalone="no"?>
<!DOCTYPE svg PUBLIC "-//W3C//DTD SVG 20010904//EN"
 "http://www.w3.org/TR/2001/REC-SVG-20010904/DTD/svg10.dtd">
<svg version="1.0" xmlns="http://www.w3.org/2000/svg"
 width="170.000000pt" height="170.000000pt" viewBox="0 0 170.000000 170.000000"
 preserveAspectRatio="xMidYMid meet">

<g transform="translate(0.000000,170.000000) scale(0.100000,-0.100000)"
fill="#000000" stroke="none">
<path d="M10 1580 l0 -70 104 0 c72 0 107 4 114 13 8 9 27 11 63 7 l53 -5 124
-495 c68 -272 127 -498 131 -503 7 -7 69 9 85 23 4 5 -40 201 -98 437 -59 235
-116 466 -128 513 -31 127 -23 120 -137 120 -79 0 -100 3 -105 15 -4 12 -26
15 -106 15 l-100 0 0 -70z"/>
<path d="M1110 1405 c-41 -12 -165 -48 -274 -79 -110 -31 -203 -59 -206 -63
-4 -5 14 -87 40 -183 36 -133 51 -176 64 -178 9 -2 65 10 124 27 59 17 132 38
162 46 113 30 275 76 277 78 4 5 -101 377 -106 376 -4 0 -40 -11 -81 -24z"/>
<path d="M1335 999 c-292 -87 -408 -121 -517 -150 -49 -13 -88 -28 -88 -33 0
-11 101 -339 106 -345 3 -3 39 5 82 17 42 12 167 47 277 77 404 113 490 138
498 145 5 4 1 29 -7 56 -27 87 -74 248 -80 277 -4 17 -13 27 -24 26 -9 0 -120
-32 -247 -70z"/>
<path d="M1610 560 c-14 -4 -164 -46 -334 -93 -169 -47 -310 -87 -312 -89 -3
-3 16 -89 21 -96 2 -2 83 19 181 47 375 104 510 141 522 141 15 0 15 0 1 56
-12 47 -24 52 -79 34z"/>
<path d="M659 466 c-95 -34 -140 -102 -140 -210 0 -100 9 -130 53 -174 97 -98
268 -69 333 57 26 52 31 142 11 196 -29 74 -129 146 -202 145 -11 -1 -35 -7
-55 -14z m102 -129 c26 -20 39 -53 39 -102 0 -80 -60 -116 -130 -80 -16 8 -34
24 -40 34 -14 27 -12 81 4 110 25 45 92 65 127 38z"/>
</g>
</svg>
